<svg width="24" height="24" viewBox="0 0 24 24" fill="none" xmlns="http://www.w3.org/2000/svg">
<path d="M9 22H15C20 22 22 20 22 15V9C22 4 20 2 15 2H9C4 2 2 4 2 9V15C2 20 4 22 9 22Z" stroke="currentColor" stroke-width="1.5" stroke-linecap="round" stroke-linejoin="round"/>
<path d="M13 8.5C13.4054 9.95946 14.0405 10.5946 15.5 11" stroke="currentColor" stroke-width="1.5" stroke-miterlimit="10" stroke-linecap="round" stroke-linejoin="round"/>
<path d="M13.3298 7.75593L8.65865 12.426C8.47392 12.6107 8.30235 12.9537 8.26277 13.2044L8.01205 14.9853C7.91968 15.6317 8.36834 16.0803 9.01492 15.988L10.7963 15.7373C11.047 15.6977 11.4033 15.5262 11.5748 15.3415L16.246 10.6715C17.051 9.86673 17.4336 8.93007 16.246 7.74277C15.0716 6.56865 14.1347 6.9512 13.3298 7.75593Z" stroke="currentColor" stroke-width="1.5" stroke-miterlimit="10" stroke-linecap="round" stroke-linejoin="round"/>
</svg>
