<svg width="234" height="61" viewBox="0 0 234 61" fill="none" xmlns="http://www.w3.org/2000/svg">
<path d="M0.336 48V14.4H4.688V23.552L4.24 21.952C5.17867 19.392 6.75733 17.4507 8.976 16.128C11.1947 14.7627 13.9467 14.08 17.232 14.08V18.496C17.0613 18.496 16.8907 18.496 16.72 18.496C16.5493 18.4533 16.3787 18.432 16.208 18.432C12.6667 18.432 9.89333 19.52 7.888 21.696C5.88267 23.8293 4.88 26.88 4.88 30.848V48H0.336ZM39.483 48.32C35.9843 48.32 32.9123 47.5947 30.267 46.144C27.6217 44.6507 25.5523 42.624 24.059 40.064C22.5657 37.4613 21.819 34.496 21.819 31.168C21.819 27.84 22.523 24.896 23.931 22.336C25.3817 19.776 27.3443 17.7707 29.819 16.32C32.3363 14.8267 35.1523 14.08 38.267 14.08C41.4243 14.08 44.219 14.8053 46.651 16.256C49.1257 17.664 51.067 19.6693 52.475 22.272C53.883 24.832 54.587 27.7973 54.587 31.168C54.587 31.3813 54.5657 31.616 54.523 31.872C54.523 32.0853 54.523 32.32 54.523 32.576H25.275V29.184H52.091L50.299 30.528C50.299 28.096 49.7657 25.9413 48.699 24.064C47.675 22.144 46.267 20.6507 44.475 19.584C42.683 18.5173 40.6137 17.984 38.267 17.984C35.963 17.984 33.8937 18.5173 32.059 19.584C30.2243 20.6507 28.795 22.144 27.771 24.064C26.747 25.984 26.235 28.1813 26.235 30.656V31.36C26.235 33.92 26.7897 36.1813 27.899 38.144C29.051 40.064 30.6297 41.5787 32.635 42.688C34.683 43.7547 37.0083 44.288 39.611 44.288C41.659 44.288 43.5577 43.9253 45.307 43.2C47.099 42.4747 48.635 41.3653 49.915 39.872L52.475 42.816C50.9817 44.608 49.1043 45.9733 46.843 46.912C44.6243 47.8507 42.171 48.32 39.483 48.32ZM77.788 48.32C74.46 48.32 71.4733 47.5947 68.828 46.144C66.2253 44.6507 64.1773 42.624 62.684 40.064C61.1907 37.4613 60.444 34.496 60.444 31.168C60.444 27.7973 61.1907 24.832 62.684 22.272C64.1773 19.712 66.2253 17.7067 68.828 16.256C71.4733 14.8053 74.46 14.08 77.788 14.08C80.6467 14.08 83.228 14.6347 85.532 15.744C87.836 16.8533 89.6493 18.5173 90.972 20.736L87.58 23.04C86.428 21.3333 84.9987 20.0747 83.292 19.264C81.5853 18.4533 79.7293 18.048 77.724 18.048C75.3347 18.048 73.18 18.6027 71.26 19.712C69.34 20.7787 67.8253 22.2933 66.716 24.256C65.6067 26.2187 65.052 28.5227 65.052 31.168C65.052 33.8133 65.6067 36.1173 66.716 38.08C67.8253 40.0427 69.34 41.5787 71.26 42.688C73.18 43.7547 75.3347 44.288 77.724 44.288C79.7293 44.288 81.5853 43.8827 83.292 43.072C84.9987 42.2613 86.428 41.024 87.58 39.36L90.972 41.664C89.6493 43.84 87.836 45.504 85.532 46.656C83.228 47.7653 80.6467 48.32 77.788 48.32ZM113.032 48.32C109.789 48.32 106.867 47.5947 104.264 46.144C101.704 44.6507 99.6773 42.624 98.184 40.064C96.6907 37.4613 95.944 34.496 95.944 31.168C95.944 27.7973 96.6907 24.832 98.184 22.272C99.6773 19.712 101.704 17.7067 104.264 16.256C106.824 14.8053 109.747 14.08 113.032 14.08C116.36 14.08 119.304 14.8053 121.864 16.256C124.467 17.7067 126.493 19.712 127.944 22.272C129.437 24.832 130.184 27.7973 130.184 31.168C130.184 34.496 129.437 37.4613 127.944 40.064C126.493 42.624 124.467 44.6507 121.864 46.144C119.261 47.5947 116.317 48.32 113.032 48.32ZM113.032 44.288C115.464 44.288 117.619 43.7547 119.496 42.688C121.373 41.5787 122.845 40.0427 123.912 38.08C125.021 36.0747 125.576 33.7707 125.576 31.168C125.576 28.5227 125.021 26.2187 123.912 24.256C122.845 22.2933 121.373 20.7787 119.496 19.712C117.619 18.6027 115.485 18.048 113.096 18.048C110.707 18.048 108.573 18.6027 106.696 19.712C104.819 20.7787 103.325 22.2933 102.216 24.256C101.107 26.2187 100.552 28.5227 100.552 31.168C100.552 33.7707 101.107 36.0747 102.216 38.08C103.325 40.0427 104.819 41.5787 106.696 42.688C108.573 43.7547 110.685 44.288 113.032 44.288ZM156.613 14.08C159.344 14.08 161.733 14.6133 163.781 15.68C165.872 16.704 167.493 18.2827 168.645 20.416C169.84 22.5493 170.437 25.2373 170.437 28.48V48H165.893V28.928C165.893 25.3867 164.997 22.72 163.205 20.928C161.456 19.0933 158.981 18.176 155.781 18.176C153.392 18.176 151.301 18.6667 149.509 19.648C147.76 20.5867 146.394 21.9733 145.413 23.808C144.474 25.6 144.005 27.776 144.005 30.336V48H139.461V14.4H143.813V23.616L143.109 21.888C144.176 19.456 145.882 17.5573 148.229 16.192C150.576 14.784 153.37 14.08 156.613 14.08Z" fill="black"/>
<path d="M183.479 48V10.176C183.479 7.18933 184.354 4.77866 186.103 2.944C187.852 1.10933 190.37 0.191998 193.655 0.191998C194.935 0.191998 196.172 0.362665 197.367 0.703999C198.562 1.04533 199.564 1.57867 200.375 2.304L198.839 5.696C198.199 5.14133 197.452 4.736 196.599 4.48C195.746 4.18133 194.828 4.032 193.847 4.032C191.927 4.032 190.455 4.56533 189.431 5.632C188.407 6.69866 187.895 8.27733 187.895 10.368V15.488L188.023 17.6V48H183.479ZM177.463 18.176V14.4H198.263V18.176H177.463ZM205.28 60.736C203.701 60.736 202.186 60.48 200.736 59.968C199.328 59.456 198.111 58.688 197.087 57.664L199.2 54.272C200.053 55.0827 200.97 55.7013 201.952 56.128C202.976 56.5973 204.106 56.832 205.344 56.832C206.837 56.832 208.117 56.4053 209.184 55.552C210.293 54.7413 211.338 53.2907 212.32 51.2L214.496 46.272L215.008 45.568L228.832 14.4H233.312L216.48 52.032C215.541 54.208 214.496 55.936 213.344 57.216C212.234 58.496 211.018 59.392 209.696 59.904C208.373 60.4587 206.901 60.736 205.28 60.736ZM214.24 48.96L198.752 14.4H203.488L217.184 45.248L214.24 48.96Z" fill="#FFB800"/>
</svg>
