<svg width="32" height="32" viewBox="0 0 32 32" fill="none" xmlns="http://www.w3.org/2000/svg">
<path d="M7.664 24V9.816C7.664 8.696 7.992 7.792 8.648 7.104C9.304 6.416 10.248 6.072 11.48 6.072C11.96 6.072 12.424 6.136 12.872 6.264C13.32 6.392 13.696 6.592 14 6.864L13.424 8.136C13.184 7.928 12.904 7.776 12.584 7.68C12.264 7.568 11.92 7.512 11.552 7.512C10.832 7.512 10.28 7.712 9.896 8.112C9.512 8.512 9.32 9.104 9.32 9.888V11.808L9.368 12.6V24H7.664ZM5.408 12.816V11.4H13.208V12.816H5.408ZM15.8392 28.776C15.2472 28.776 14.6792 28.68 14.1352 28.488C13.6072 28.296 13.1512 28.008 12.7672 27.624L13.5592 26.352C13.8792 26.656 14.2232 26.888 14.5912 27.048C14.9752 27.224 15.3992 27.312 15.8632 27.312C16.4232 27.312 16.9032 27.152 17.3032 26.832C17.7192 26.528 18.1112 25.984 18.4792 25.2L19.2952 23.352L19.4872 23.088L24.6712 11.4H26.3512L20.0392 25.512C19.6872 26.328 19.2952 26.976 18.8632 27.456C18.4472 27.936 17.9912 28.272 17.4952 28.464C16.9992 28.672 16.4472 28.776 15.8392 28.776ZM19.1992 24.36L13.3912 11.4H15.1672L20.3032 22.968L19.1992 24.36Z" fill="#FFB800"/>
</svg>
